<svg xmlns="http://www.w3.org/2000/svg" viewBox="0 0 820 460" font-family="sans-serif">
<rect width="820" height="460" fill="white"/>
<text x="410.0" y="28" text-anchor="middle" font-size="18" font-weight="bold">Relative ML performance (× vs slowest server)</text>
<line x1="70" y1="390.0" x2="750" y2="390.0" stroke="#eee"/>
<text x="62" y="394.0" text-anchor="end" font-size="11" fill="#666">0×</text>
<line x1="70" y1="379.7" x2="750" y2="379.7" stroke="#eee"/>
<text x="62" y="383.7" text-anchor="end" font-size="11" fill="#666">1×</text>
<line x1="70" y1="369.4" x2="750" y2="369.4" stroke="#eee"/>
<text x="62" y="373.4" text-anchor="end" font-size="11" fill="#666">2×</text>
<line x1="70" y1="359.0" x2="750" y2="359.0" stroke="#eee"/>
<text x="62" y="363.0" text-anchor="end" font-size="11" fill="#666">3×</text>
<line x1="70" y1="348.7" x2="750" y2="348.7" stroke="#eee"/>
<text x="62" y="352.7" text-anchor="end" font-size="11" fill="#666">4×</text>
<line x1="70" y1="338.4" x2="750" y2="338.4" stroke="#eee"/>
<text x="62" y="342.4" text-anchor="end" font-size="11" fill="#666">5×</text>
<line x1="70" y1="328.1" x2="750" y2="328.1" stroke="#eee"/>
<text x="62" y="332.1" text-anchor="end" font-size="11" fill="#666">6×</text>
<line x1="70" y1="317.7" x2="750" y2="317.7" stroke="#eee"/>
<text x="62" y="321.7" text-anchor="end" font-size="11" fill="#666">7×</text>
<line x1="70" y1="307.4" x2="750" y2="307.4" stroke="#eee"/>
<text x="62" y="311.4" text-anchor="end" font-size="11" fill="#666">8×</text>
<line x1="70" y1="297.1" x2="750" y2="297.1" stroke="#eee"/>
<text x="62" y="301.1" text-anchor="end" font-size="11" fill="#666">9×</text>
<line x1="70" y1="286.8" x2="750" y2="286.8" stroke="#eee"/>
<text x="62" y="290.8" text-anchor="end" font-size="11" fill="#666">10×</text>
<line x1="70" y1="276.5" x2="750" y2="276.5" stroke="#eee"/>
<text x="62" y="280.5" text-anchor="end" font-size="11" fill="#666">11×</text>
<line x1="70" y1="266.1" x2="750" y2="266.1" stroke="#eee"/>
<text x="62" y="270.1" text-anchor="end" font-size="11" fill="#666">12×</text>
<line x1="70" y1="255.8" x2="750" y2="255.8" stroke="#eee"/>
<text x="62" y="259.8" text-anchor="end" font-size="11" fill="#666">13×</text>
<line x1="70" y1="245.5" x2="750" y2="245.5" stroke="#eee"/>
<text x="62" y="249.5" text-anchor="end" font-size="11" fill="#666">14×</text>
<line x1="70" y1="235.2" x2="750" y2="235.2" stroke="#eee"/>
<text x="62" y="239.2" text-anchor="end" font-size="11" fill="#666">15×</text>
<line x1="70" y1="224.8" x2="750" y2="224.8" stroke="#eee"/>
<text x="62" y="228.8" text-anchor="end" font-size="11" fill="#666">16×</text>
<line x1="70" y1="214.5" x2="750" y2="214.5" stroke="#eee"/>
<text x="62" y="218.5" text-anchor="end" font-size="11" fill="#666">17×</text>
<line x1="70" y1="204.2" x2="750" y2="204.2" stroke="#eee"/>
<text x="62" y="208.2" text-anchor="end" font-size="11" fill="#666">18×</text>
<line x1="70" y1="193.9" x2="750" y2="193.9" stroke="#eee"/>
<text x="62" y="197.9" text-anchor="end" font-size="11" fill="#666">19×</text>
<line x1="70" y1="183.5" x2="750" y2="183.5" stroke="#eee"/>
<text x="62" y="187.5" text-anchor="end" font-size="11" fill="#666">20×</text>
<line x1="70" y1="173.2" x2="750" y2="173.2" stroke="#eee"/>
<text x="62" y="177.2" text-anchor="end" font-size="11" fill="#666">21×</text>
<line x1="70" y1="162.9" x2="750" y2="162.9" stroke="#eee"/>
<text x="62" y="166.9" text-anchor="end" font-size="11" fill="#666">22×</text>
<line x1="70" y1="152.6" x2="750" y2="152.6" stroke="#eee"/>
<text x="62" y="156.6" text-anchor="end" font-size="11" fill="#666">23×</text>
<line x1="70" y1="142.3" x2="750" y2="142.3" stroke="#eee"/>
<text x="62" y="146.3" text-anchor="end" font-size="11" fill="#666">24×</text>
<line x1="70" y1="131.9" x2="750" y2="131.9" stroke="#eee"/>
<text x="62" y="135.9" text-anchor="end" font-size="11" fill="#666">25×</text>
<line x1="70" y1="121.6" x2="750" y2="121.6" stroke="#eee"/>
<text x="62" y="125.6" text-anchor="end" font-size="11" fill="#666">26×</text>
<line x1="70" y1="111.3" x2="750" y2="111.3" stroke="#eee"/>
<text x="62" y="115.3" text-anchor="end" font-size="11" fill="#666">27×</text>
<line x1="70" y1="101.0" x2="750" y2="101.0" stroke="#eee"/>
<text x="62" y="105.0" text-anchor="end" font-size="11" fill="#666">28×</text>
<line x1="70" y1="90.6" x2="750" y2="90.6" stroke="#eee"/>
<text x="62" y="94.6" text-anchor="end" font-size="11" fill="#666">29×</text>
<line x1="70" y1="80.3" x2="750" y2="80.3" stroke="#eee"/>
<text x="62" y="84.3" text-anchor="end" font-size="11" fill="#666">30×</text>
<line x1="70" y1="70.0" x2="750" y2="70.0" stroke="#eee"/>
<text x="62" y="74.0" text-anchor="end" font-size="11" fill="#666">31×</text>
<rect x="79.4" y="379.7" width="17.0" height="10.3" fill="#4C72B0"/>
<text x="87.9" y="375.7" text-anchor="middle" font-size="10" fill="#333">1.0</text>
<rect x="98.3" y="284.2" width="17.0" height="105.8" fill="#DD8452"/>
<text x="106.8" y="280.2" text-anchor="middle" font-size="10" fill="#333">10.3</text>
<rect x="117.2" y="70.0" width="17.0" height="320.0" fill="#55A868"/>
<text x="125.7" y="66.0" text-anchor="middle" font-size="10" fill="#333">31.0</text>
<rect x="136.1" y="317.3" width="17.0" height="72.7" fill="#C44E52"/>
<text x="144.6" y="313.3" text-anchor="middle" font-size="10" fill="#333">7.0</text>
<rect x="155.0" y="358.7" width="17.0" height="31.3" fill="#8172B3"/>
<text x="163.5" y="354.7" text-anchor="middle" font-size="10" fill="#333">3.0</text>
<text x="126.7" y="408.0" text-anchor="middle" font-size="12">Raw compute (TFLOPS fp16)</text>
<rect x="192.8" y="379.7" width="17.0" height="10.3" fill="#4C72B0"/>
<text x="201.3" y="375.7" text-anchor="middle" font-size="10" fill="#333">1.0</text>
<rect x="211.7" y="361.2" width="17.0" height="28.8" fill="#DD8452"/>
<text x="220.2" y="357.2" text-anchor="middle" font-size="10" fill="#333">2.8</text>
<rect x="230.6" y="347.5" width="17.0" height="42.5" fill="#55A868"/>
<text x="239.1" y="343.5" text-anchor="middle" font-size="10" fill="#333">4.1</text>
<rect x="249.4" y="369.6" width="17.0" height="20.4" fill="#C44E52"/>
<text x="257.9" y="365.6" text-anchor="middle" font-size="10" fill="#333">2.0</text>
<rect x="268.3" y="377.8" width="17.0" height="12.2" fill="#8172B3"/>
<text x="276.8" y="373.8" text-anchor="middle" font-size="10" fill="#333">1.2</text>
<text x="240.0" y="408.0" text-anchor="middle" font-size="12">Training: ResNet50 (img/s)</text>
<rect x="306.1" y="375.6" width="17.0" height="14.4" fill="#4C72B0"/>
<text x="314.6" y="371.6" text-anchor="middle" font-size="10" fill="#333">1.4</text>
<rect x="325.0" y="362.0" width="17.0" height="28.0" fill="#DD8452"/>
<text x="333.5" y="358.0" text-anchor="middle" font-size="10" fill="#333">2.7</text>
<rect x="343.9" y="328.0" width="17.0" height="62.0" fill="#55A868"/>
<text x="352.4" y="324.0" text-anchor="middle" font-size="10" fill="#333">6.0</text>
<rect x="362.8" y="372.5" width="17.0" height="17.5" fill="#C44E52"/>
<text x="371.3" y="368.5" text-anchor="middle" font-size="10" fill="#333">1.7</text>
<rect x="381.7" y="379.7" width="17.0" height="10.3" fill="#8172B3"/>
<text x="390.2" y="375.7" text-anchor="middle" font-size="10" fill="#333">1.0</text>
<text x="353.3" y="408.0" text-anchor="middle" font-size="12">Inference: ResNet50 (img/s)</text>
<rect x="419.4" y="377.8" width="17.0" height="12.2" fill="#4C72B0"/>
<text x="427.9" y="373.8" text-anchor="middle" font-size="10" fill="#333">1.2</text>
<rect x="438.3" y="364.8" width="17.0" height="25.2" fill="#DD8452"/>
<text x="446.8" y="360.8" text-anchor="middle" font-size="10" fill="#333">2.4</text>
<rect x="457.2" y="358.5" width="17.0" height="31.5" fill="#55A868"/>
<text x="465.7" y="354.5" text-anchor="middle" font-size="10" fill="#333">3.1</text>
<rect x="476.1" y="374.3" width="17.0" height="15.7" fill="#C44E52"/>
<text x="484.6" y="370.3" text-anchor="middle" font-size="10" fill="#333">1.5</text>
<rect x="495.0" y="379.7" width="17.0" height="10.3" fill="#8172B3"/>
<text x="503.5" y="375.7" text-anchor="middle" font-size="10" fill="#333">1.0</text>
<text x="466.7" y="408.0" text-anchor="middle" font-size="12">Inference: detection (FPS)</text>
<rect x="532.8" y="390.0" width="17.0" height="0.0" fill="#4C72B0"/>
<rect x="551.7" y="370.8" width="17.0" height="19.2" fill="#DD8452"/>
<text x="560.2" y="366.8" text-anchor="middle" font-size="10" fill="#333">1.9</text>
<rect x="570.6" y="374.4" width="17.0" height="15.6" fill="#55A868"/>
<text x="579.1" y="370.4" text-anchor="middle" font-size="10" fill="#333">1.5</text>
<rect x="589.4" y="379.7" width="17.0" height="10.3" fill="#C44E52"/>
<text x="597.9" y="375.7" text-anchor="middle" font-size="10" fill="#333">1.0</text>
<rect x="608.3" y="374.2" width="17.0" height="15.8" fill="#8172B3"/>
<text x="616.8" y="370.2" text-anchor="middle" font-size="10" fill="#333">1.5</text>
<text x="580.0" y="408.0" text-anchor="middle" font-size="12">Inference: LLM (tok/s)</text>
<rect x="646.1" y="338.2" width="17.0" height="51.8" fill="#4C72B0"/>
<text x="654.6" y="334.2" text-anchor="middle" font-size="10" fill="#333">5.0</text>
<rect x="665.0" y="366.1" width="17.0" height="23.9" fill="#DD8452"/>
<text x="673.5" y="362.1" text-anchor="middle" font-size="10" fill="#333">2.3</text>
<rect x="683.9" y="363.2" width="17.0" height="26.8" fill="#55A868"/>
<text x="692.4" y="359.2" text-anchor="middle" font-size="10" fill="#333">2.6</text>
<rect x="702.8" y="379.7" width="17.0" height="10.3" fill="#C44E52"/>
<text x="711.3" y="375.7" text-anchor="middle" font-size="10" fill="#333">1.0</text>
<rect x="721.7" y="342.4" width="17.0" height="47.6" fill="#8172B3"/>
<text x="730.2" y="338.4" text-anchor="middle" font-size="10" fill="#333">4.6</text>
<text x="693.3" y="408.0" text-anchor="middle" font-size="12">Data loading (img/s)</text>
<rect x="70.0" y="434.0" width="12" height="12" fill="#4C72B0"/>
<text x="88.0" y="444.0" font-size="12">aryabhata</text>
<rect x="172.0" y="434.0" width="12" height="12" fill="#DD8452"/>
<text x="190.0" y="444.0" font-size="12">bhaskar</text>
<rect x="258.0" y="434.0" width="12" height="12" fill="#55A868"/>
<text x="276.0" y="444.0" font-size="12">ramanujan</text>
<rect x="360.0" y="434.0" width="12" height="12" fill="#C44E52"/>
<text x="378.0" y="444.0" font-size="12">sustain</text>
<rect x="446.0" y="434.0" width="12" height="12" fill="#8172B3"/>
<text x="464.0" y="444.0" font-size="12">vikram</text>
</svg>