<svg xmlns="http://www.w3.org/2000/svg" viewBox="0 0 960 1070" font-family="-apple-system,Segoe UI,Roboto,sans-serif">
<rect width="960" height="1070" fill="white"/>
<text x="480" y="32" text-anchor="middle" font-size="19" font-weight="700" fill="#1f2937">ML benchmark by metric — longest bar = best</text>
<rect x="0" y="53" width="960" height="137" fill="#fafbfc"/>
<text x="236" y="128" text-anchor="end" font-size="13" font-weight="600" fill="#374151">Raw compute (TFLOPS fp16)</text>
<line x1="250" y1="53" x2="250" y2="190" stroke="#dfe3e8"/>
<rect x="250" y="58" width="20.3" height="17" fill="#4C72B0" rx="2"/>
<text x="277.3" y="71" font-size="12" fill="#374151">8.7</text>
<rect x="250" y="80" width="208.4" height="17" fill="#DD8452" rx="2"/>
<text x="465.4" y="93" font-size="12" fill="#374151">89.2</text>
<rect x="250" y="102" width="224.7" height="17" fill="#55A868" rx="2"/>
<text x="481.7" y="115" font-size="12" fill="#374151">96.2</text>
<rect x="250" y="124" width="630.0" height="17" fill="#C44E52" rx="2"/>
<text x="887.0" y="137" font-size="12" fill="#374151">270</text>
<rect x="250" y="146" width="143.2" height="17" fill="#8172B3" rx="2"/>
<text x="400.2" y="159" font-size="12" fill="#374151">61.3</text>
<rect x="250" y="168" width="61.7" height="17" fill="#937860" rx="2"/>
<text x="318.7" y="181" font-size="12" fill="#374151">26.4</text>
<text x="236" y="286" text-anchor="end" font-size="13" font-weight="600" fill="#374151">Training: ResNet50 (img/s)</text>
<line x1="250" y1="211" x2="250" y2="348" stroke="#dfe3e8"/>
<rect x="250" y="216" width="152.9" height="17" fill="#4C72B0" rx="2"/>
<text x="409.9" y="229" font-size="12" fill="#374151">257</text>
<rect x="250" y="238" width="426.6" height="17" fill="#DD8452" rx="2"/>
<text x="683.6" y="251" font-size="12" fill="#374151">718</text>
<rect x="250" y="260" width="205.1" height="17" fill="#55A868" rx="2"/>
<text x="462.1" y="273" font-size="12" fill="#374151">345</text>
<rect x="250" y="282" width="630.0" height="17" fill="#C44E52" rx="2"/>
<text x="887.0" y="295" font-size="12" fill="#374151">1060</text>
<rect x="250" y="304" width="302.3" height="17" fill="#8172B3" rx="2"/>
<text x="559.3" y="317" font-size="12" fill="#374151">508</text>
<rect x="250" y="326" width="181.0" height="17" fill="#937860" rx="2"/>
<text x="438.0" y="339" font-size="12" fill="#374151">304</text>
<rect x="0" y="369" width="960" height="137" fill="#fafbfc"/>
<text x="236" y="444" text-anchor="end" font-size="13" font-weight="600" fill="#374151">Inference: ResNet50 (img/s)</text>
<line x1="250" y1="369" x2="250" y2="506" stroke="#dfe3e8"/>
<rect x="250" y="374" width="145.9" height="17" fill="#4C72B0" rx="2"/>
<text x="402.9" y="387" font-size="12" fill="#374151">727</text>
<rect x="250" y="396" width="284.9" height="17" fill="#DD8452" rx="2"/>
<text x="541.9" y="409" font-size="12" fill="#374151">1420</text>
<rect x="250" y="418" width="123.2" height="17" fill="#55A868" rx="2"/>
<text x="380.2" y="431" font-size="12" fill="#374151">614</text>
<rect x="250" y="440" width="630.0" height="17" fill="#C44E52" rx="2"/>
<text x="887.0" y="453" font-size="12" fill="#374151">3139</text>
<rect x="250" y="462" width="178.3" height="17" fill="#8172B3" rx="2"/>
<text x="435.3" y="475" font-size="12" fill="#374151">889</text>
<rect x="250" y="484" width="104.9" height="17" fill="#937860" rx="2"/>
<text x="361.9" y="497" font-size="12" fill="#374151">523</text>
<text x="236" y="602" text-anchor="end" font-size="13" font-weight="600" fill="#374151">Inference: detection (FPS)</text>
<line x1="250" y1="527" x2="250" y2="664" stroke="#dfe3e8"/>
<rect x="250" y="532" width="244.8" height="17" fill="#4C72B0" rx="2"/>
<text x="501.8" y="545" font-size="12" fill="#374151">22.5</text>
<rect x="250" y="554" width="503.1" height="17" fill="#DD8452" rx="2"/>
<text x="760.1" y="567" font-size="12" fill="#374151">46.2</text>
<rect x="250" y="576" width="210.1" height="17" fill="#55A868" rx="2"/>
<text x="467.1" y="589" font-size="12" fill="#374151">19.3</text>
<rect x="250" y="598" width="630.0" height="17" fill="#C44E52" rx="2"/>
<text x="887.0" y="611" font-size="12" fill="#374151">57.9</text>
<rect x="250" y="620" width="314.9" height="17" fill="#8172B3" rx="2"/>
<text x="571.9" y="633" font-size="12" fill="#374151">28.9</text>
<rect x="250" y="642" width="206.5" height="17" fill="#937860" rx="2"/>
<text x="463.5" y="655" font-size="12" fill="#374151">19.0</text>
<rect x="0" y="685" width="960" height="137" fill="#fafbfc"/>
<text x="236" y="760" text-anchor="end" font-size="13" font-weight="600" fill="#374151">Inference: LLM (tok/s)</text>
<line x1="250" y1="685" x2="250" y2="822" stroke="#dfe3e8"/>
<text x="255" y="703" font-size="11" fill="#b0b4ba">n/a</text>
<rect x="250" y="712" width="630.0" height="17" fill="#DD8452" rx="2"/>
<text x="887.0" y="725" font-size="12" fill="#374151">87.2</text>
<rect x="250" y="734" width="184.2" height="17" fill="#55A868" rx="2"/>
<text x="441.2" y="747" font-size="12" fill="#374151">25.5</text>
<rect x="250" y="756" width="511.6" height="17" fill="#C44E52" rx="2"/>
<text x="768.6" y="769" font-size="12" fill="#374151">70.8</text>
<rect x="250" y="778" width="337.9" height="17" fill="#8172B3" rx="2"/>
<text x="594.9" y="791" font-size="12" fill="#374151">46.8</text>
<rect x="250" y="800" width="517.8" height="17" fill="#937860" rx="2"/>
<text x="774.8" y="813" font-size="12" fill="#374151">71.7</text>
<text x="236" y="918" text-anchor="end" font-size="13" font-weight="600" fill="#374151">Data loading (img/s)</text>
<line x1="250" y1="843" x2="250" y2="980" stroke="#dfe3e8"/>
<rect x="250" y="848" width="571.5" height="17" fill="#4C72B0" rx="2"/>
<text x="828.5" y="861" font-size="12" fill="#374151">4805</text>
<rect x="250" y="870" width="263.6" height="17" fill="#DD8452" rx="2"/>
<text x="520.6" y="883" font-size="12" fill="#374151">2216</text>
<rect x="250" y="892" width="630.0" height="17" fill="#55A868" rx="2"/>
<text x="887.0" y="905" font-size="12" fill="#374151">5297</text>
<rect x="250" y="914" width="295.4" height="17" fill="#C44E52" rx="2"/>
<text x="552.4" y="927" font-size="12" fill="#374151">2484</text>
<rect x="250" y="936" width="113.9" height="17" fill="#8172B3" rx="2"/>
<text x="370.9" y="949" font-size="12" fill="#374151">958</text>
<rect x="250" y="958" width="524.8" height="17" fill="#937860" rx="2"/>
<text x="781.8" y="971" font-size="12" fill="#374151">4413</text>
<rect x="250" y="1029" width="12" height="12" rx="2" fill="#4C72B0"/>
<text x="267" y="1040" font-size="12" fill="#4b5563">aryabhata · TITAN Xp</text>
<rect x="424" y="1029" width="12" height="12" rx="2" fill="#DD8452"/>
<text x="441" y="1040" font-size="12" fill="#4b5563">bhaskar · RTX A5000</text>
<rect x="591" y="1029" width="12" height="12" rx="2" fill="#55A868"/>
<text x="608" y="1040" font-size="12" fill="#4b5563">mani · GB10</text>
<rect x="702" y="1029" width="12" height="12" rx="2" fill="#C44E52"/>
<text x="719" y="1040" font-size="12" fill="#4b5563">ramanujan · A100</text>
<rect x="250" y="1049" width="12" height="12" rx="2" fill="#8172B3"/>
<text x="267" y="1060" font-size="12" fill="#4b5563">sustain · RTX A4000</text>
<rect x="417" y="1049" width="12" height="12" rx="2" fill="#937860"/>
<text x="434" y="1060" font-size="12" fill="#4b5563">vikram · RTX A2000 12GB</text>
</svg>