<svg xmlns="http://www.w3.org/2000/svg" viewBox="0 0 960 938" font-family="-apple-system,Segoe UI,Roboto,sans-serif">
<rect width="960" height="938" fill="white"/>
<text x="480" y="32" text-anchor="middle" font-size="19" font-weight="700" fill="#1f2937">ML benchmark by metric — longest bar = best</text>
<rect x="0" y="53" width="960" height="115" fill="#fafbfc"/>
<text x="236" y="117" text-anchor="end" font-size="13" font-weight="600" fill="#374151">Raw compute (TFLOPS fp16)</text>
<line x1="250" y1="53" x2="250" y2="168" stroke="#dfe3e8"/>
<rect x="250" y="58" width="20.3" height="17" fill="#4C72B0" rx="2"/>
<text x="277.3" y="71" font-size="12" fill="#374151">8.7</text>
<rect x="250" y="80" width="208.4" height="17" fill="#DD8452" rx="2"/>
<text x="465.4" y="93" font-size="12" fill="#374151">89.2</text>
<rect x="250" y="102" width="630.0" height="17" fill="#55A868" rx="2"/>
<text x="887.0" y="115" font-size="12" fill="#374151">270</text>
<rect x="250" y="124" width="143.2" height="17" fill="#C44E52" rx="2"/>
<text x="400.2" y="137" font-size="12" fill="#374151">61.3</text>
<rect x="250" y="146" width="61.7" height="17" fill="#8172B3" rx="2"/>
<text x="318.7" y="159" font-size="12" fill="#374151">26.4</text>
<text x="236" y="253" text-anchor="end" font-size="13" font-weight="600" fill="#374151">Training: ResNet50 (img/s)</text>
<line x1="250" y1="189" x2="250" y2="304" stroke="#dfe3e8"/>
<rect x="250" y="194" width="152.9" height="17" fill="#4C72B0" rx="2"/>
<text x="409.9" y="207" font-size="12" fill="#374151">257</text>
<rect x="250" y="216" width="426.6" height="17" fill="#DD8452" rx="2"/>
<text x="683.6" y="229" font-size="12" fill="#374151">718</text>
<rect x="250" y="238" width="630.0" height="17" fill="#55A868" rx="2"/>
<text x="887.0" y="251" font-size="12" fill="#374151">1060</text>
<rect x="250" y="260" width="302.3" height="17" fill="#C44E52" rx="2"/>
<text x="559.3" y="273" font-size="12" fill="#374151">508</text>
<rect x="250" y="282" width="181.0" height="17" fill="#8172B3" rx="2"/>
<text x="438.0" y="295" font-size="12" fill="#374151">304</text>
<rect x="0" y="325" width="960" height="115" fill="#fafbfc"/>
<text x="236" y="389" text-anchor="end" font-size="13" font-weight="600" fill="#374151">Inference: ResNet50 (img/s)</text>
<line x1="250" y1="325" x2="250" y2="440" stroke="#dfe3e8"/>
<rect x="250" y="330" width="145.9" height="17" fill="#4C72B0" rx="2"/>
<text x="402.9" y="343" font-size="12" fill="#374151">727</text>
<rect x="250" y="352" width="284.9" height="17" fill="#DD8452" rx="2"/>
<text x="541.9" y="365" font-size="12" fill="#374151">1420</text>
<rect x="250" y="374" width="630.0" height="17" fill="#55A868" rx="2"/>
<text x="887.0" y="387" font-size="12" fill="#374151">3139</text>
<rect x="250" y="396" width="178.3" height="17" fill="#C44E52" rx="2"/>
<text x="435.3" y="409" font-size="12" fill="#374151">889</text>
<rect x="250" y="418" width="104.9" height="17" fill="#8172B3" rx="2"/>
<text x="361.9" y="431" font-size="12" fill="#374151">523</text>
<text x="236" y="525" text-anchor="end" font-size="13" font-weight="600" fill="#374151">Inference: detection (FPS)</text>
<line x1="250" y1="461" x2="250" y2="576" stroke="#dfe3e8"/>
<rect x="250" y="466" width="244.8" height="17" fill="#4C72B0" rx="2"/>
<text x="501.8" y="479" font-size="12" fill="#374151">22.5</text>
<rect x="250" y="488" width="503.1" height="17" fill="#DD8452" rx="2"/>
<text x="760.1" y="501" font-size="12" fill="#374151">46.2</text>
<rect x="250" y="510" width="630.0" height="17" fill="#55A868" rx="2"/>
<text x="887.0" y="523" font-size="12" fill="#374151">57.9</text>
<rect x="250" y="532" width="314.9" height="17" fill="#C44E52" rx="2"/>
<text x="571.9" y="545" font-size="12" fill="#374151">28.9</text>
<rect x="250" y="554" width="206.5" height="17" fill="#8172B3" rx="2"/>
<text x="463.5" y="567" font-size="12" fill="#374151">19.0</text>
<rect x="0" y="597" width="960" height="115" fill="#fafbfc"/>
<text x="236" y="661" text-anchor="end" font-size="13" font-weight="600" fill="#374151">Inference: LLM (tok/s)</text>
<line x1="250" y1="597" x2="250" y2="712" stroke="#dfe3e8"/>
<text x="255" y="615" font-size="11" fill="#b0b4ba">n/a</text>
<rect x="250" y="624" width="630.0" height="17" fill="#DD8452" rx="2"/>
<text x="887.0" y="637" font-size="12" fill="#374151">87.2</text>
<rect x="250" y="646" width="511.6" height="17" fill="#55A868" rx="2"/>
<text x="768.6" y="659" font-size="12" fill="#374151">70.8</text>
<rect x="250" y="668" width="337.9" height="17" fill="#C44E52" rx="2"/>
<text x="594.9" y="681" font-size="12" fill="#374151">46.8</text>
<rect x="250" y="690" width="517.8" height="17" fill="#8172B3" rx="2"/>
<text x="774.8" y="703" font-size="12" fill="#374151">71.7</text>
<text x="236" y="797" text-anchor="end" font-size="13" font-weight="600" fill="#374151">Data loading (img/s)</text>
<line x1="250" y1="733" x2="250" y2="848" stroke="#dfe3e8"/>
<rect x="250" y="738" width="630.0" height="17" fill="#4C72B0" rx="2"/>
<text x="887.0" y="751" font-size="12" fill="#374151">4805</text>
<rect x="250" y="760" width="290.6" height="17" fill="#DD8452" rx="2"/>
<text x="547.6" y="773" font-size="12" fill="#374151">2216</text>
<rect x="250" y="782" width="325.7" height="17" fill="#55A868" rx="2"/>
<text x="582.7" y="795" font-size="12" fill="#374151">2484</text>
<rect x="250" y="804" width="125.6" height="17" fill="#C44E52" rx="2"/>
<text x="382.6" y="817" font-size="12" fill="#374151">958</text>
<rect x="250" y="826" width="578.6" height="17" fill="#8172B3" rx="2"/>
<text x="835.6" y="839" font-size="12" fill="#374151">4413</text>
<rect x="250" y="897" width="12" height="12" rx="2" fill="#4C72B0"/>
<text x="267" y="908" font-size="12" fill="#4b5563">aryabhata · TITAN Xp</text>
<rect x="424" y="897" width="12" height="12" rx="2" fill="#DD8452"/>
<text x="441" y="908" font-size="12" fill="#4b5563">bhaskar · RTX A5000</text>
<rect x="591" y="897" width="12" height="12" rx="2" fill="#55A868"/>
<text x="608" y="908" font-size="12" fill="#4b5563">ramanujan · A100</text>
<rect x="737" y="897" width="12" height="12" rx="2" fill="#C44E52"/>
<text x="754" y="908" font-size="12" fill="#4b5563">sustain · RTX A4000</text>
<rect x="250" y="917" width="12" height="12" rx="2" fill="#8172B3"/>
<text x="267" y="928" font-size="12" fill="#4b5563">vikram · RTX A2000 12GB</text>
</svg>