<svg xmlns="http://www.w3.org/2000/svg" xmlns:xlink="http://www.w3.org/1999/xlink" width="1080" zoomAndPan="magnify" viewBox="0 0 810 809.999993" height="1080" preserveAspectRatio="xMidYMid meet" version="1.2"><defs><clipPath id="911f8e1841"><path d="M 98.660156 70.238281 L 672 70.238281 L 672 739.988281 L 98.660156 739.988281 Z M 98.660156 70.238281 "/></clipPath></defs><g id="5cef1b0e2b"><path style="fill:none;stroke-width:2;stroke-linecap:round;stroke-linejoin:miter;stroke:#FFFFFF;stroke-opacity:1;stroke-miterlimit:4;" d="M 110.000234 84.999951 L 110.000234 34.999947 " transform="matrix(8.170117,0,0,8.168749,-552.453065,-83.608913)"/><path style="fill:none;stroke-width:2;stroke-linecap:round;stroke-linejoin:miter;stroke:#FFFFFF;stroke-opacity:1;stroke-miterlimit:4;" d="M 110.000234 84.999951 L 150.000235 84.999951 " transform="matrix(8.170117,0,0,8.168749,-552.453065,-83.608913)"/><g clip-rule="nonzero" clip-path="url(#911f8e1841)"><path style="fill:none;stroke-width:3.5;stroke-linecap:round;stroke-linejoin:miter;stroke:#FFFFFF;stroke-opacity:1;stroke-miterlimit:4;" d="M 90.000233 84.700123 L 91.400152 84.500238 L 92.800071 84.299874 L 94.100064 84.099989 L 95.499983 83.700219 L 96.899901 83.200027 L 98.29982 82.499951 L 99.700217 81.500046 L 101.00021 80.199836 L 102.400128 78.499855 L 103.800047 76.300161 L 105.199966 73.499854 L 106.599885 70.199835 L 107.899878 66.30016 L 109.299796 62.100178 L 110.700193 57.900197 L 112.100112 53.700216 L 113.400105 49.800063 L 114.800024 46.500043 L 116.199942 43.700215 L 117.599861 41.500043 L 118.99978 39.800062 L 120.299773 38.499851 L 121.700169 37.499947 L 123.100088 36.79987 L 124.500007 36.300157 L 125.899926 35.899908 L 127.199919 35.700023 L 128.599837 35.500138 L 130.000234 35.299774 " transform="matrix(8.170117,0,0,8.168749,-552.453065,-83.608913)"/></g></g></svg>